<svg width="16" height="16" viewBox="0 0 16 16" fill="none" xmlns="http://www.w3.org/2000/svg">
<g clip-path="url(#clip0_293_132)">
<g clip-path="url(#clip1_293_132)">
<path fill-rule="evenodd" clip-rule="evenodd" d="M15.2873 2.32899C15.3387 2.38059 15.3794 2.4419 15.4072 2.50939C15.435 2.57689 15.4494 2.64925 15.4494 2.72232C15.4494 2.7954 15.435 2.86775 15.4072 2.93525C15.3794 3.00274 15.3387 3.06405 15.2873 3.11565L7.56314 10.8934C7.51189 10.9452 7.451 10.9862 7.38398 11.0142C7.31695 11.0422 7.24509 11.0566 7.17252 11.0566C7.09995 11.0566 7.02809 11.0422 6.96106 11.0142C6.89403 10.9862 6.83315 10.9452 6.7819 10.8934L3.47155 7.5601C3.42026 7.50845 3.37957 7.44712 3.3518 7.37964C3.32404 7.31215 3.30975 7.23981 3.30975 7.16677C3.30975 7.09372 3.32404 7.02138 3.3518 6.95389C3.37957 6.88641 3.42026 6.82508 3.47155 6.77343C3.52285 6.72178 3.58375 6.6808 3.65077 6.65285C3.71779 6.6249 3.78963 6.61051 3.86217 6.61051C3.93472 6.61051 4.00655 6.6249 4.07358 6.65285C4.1406 6.6808 4.2015 6.72178 4.2528 6.77343L7.17252 9.71454L14.506 2.32899C14.5573 2.27725 14.6182 2.2362 14.6852 2.2082C14.7522 2.18019 14.8241 2.16577 14.8967 2.16577C14.9692 2.16577 15.0411 2.18019 15.1081 2.2082C15.1751 2.2362 15.236 2.27725 15.2873 2.32899Z" fill="#2DC071"/>
<path fill-rule="evenodd" clip-rule="evenodd" d="M7.17242 2.16674C5.97209 2.16674 4.79872 2.52515 3.80069 3.19664C2.80265 3.86814 2.02478 4.82257 1.56543 5.93923C1.10609 7.05589 0.985899 8.28463 1.22007 9.47007C1.45424 10.6555 2.03226 11.7444 2.88102 12.5991C3.72978 13.4537 4.81116 14.0357 5.98843 14.2715C7.16569 14.5073 8.38596 14.3863 9.49492 13.9238C10.6039 13.4612 11.5517 12.678 12.2186 11.673C12.8854 10.668 13.2414 9.48651 13.2414 8.27785C13.2414 8.13051 13.2995 7.9892 13.403 7.88501C13.5065 7.78082 13.6468 7.72229 13.7931 7.72229C13.9394 7.72229 14.0798 7.78082 14.1832 7.88501C14.2867 7.9892 14.3448 8.13051 14.3448 8.27785C14.3446 9.86767 13.8235 11.413 12.8622 12.6742C11.9009 13.9354 10.5532 14.8419 9.02811 15.2532C7.50302 15.6646 5.88575 15.5577 4.42713 14.9492C2.9685 14.3406 1.75004 13.2645 0.960701 11.8876C0.171362 10.5108 -0.144741 8.91009 0.0614162 7.33389C0.267573 5.75768 0.98447 4.29401 2.10092 3.16987C3.21738 2.04574 4.671 1.32396 6.23635 1.11647C7.8017 0.908982 9.3913 1.22738 10.7586 2.02229C10.8246 2.05702 10.8828 2.10482 10.93 2.16282C10.9771 2.22082 11.012 2.28781 11.0328 2.35977C11.0535 2.43173 11.0596 2.50717 11.0506 2.58155C11.0416 2.65593 11.0178 2.72772 10.9806 2.79259C10.9433 2.85746 10.8934 2.91407 10.8339 2.95902C10.7744 3.00398 10.7064 3.03634 10.6342 3.05416C10.5619 3.07199 10.4868 3.07491 10.4133 3.06275C10.3399 3.05059 10.2697 3.0236 10.2069 2.9834C9.28467 2.44639 8.23775 2.16464 7.17242 2.16674Z" fill="#2DC071"/>
</g>
</g>
<defs>
<clipPath id="clip0_293_132">
<rect width="16" height="15" fill="white" transform="translate(0 0.5)"/>
</clipPath>
<clipPath id="clip1_293_132">
<rect width="15.4494" height="14.4445" fill="white" transform="translate(0 1.05469)"/>
</clipPath>
</defs>
</svg>
