<svg width="24" height="22" viewBox="0 0 24 22" fill="none" xmlns="http://www.w3.org/2000/svg">
<path d="M24 2.99454C23.1174 3.4046 22.157 3.69972 21.1676 3.81466C22.1948 3.15743 22.9639 2.11912 23.3308 0.894539C22.367 1.51208 21.3111 1.94511 20.2101 2.17442C19.7499 1.64453 19.1933 1.2224 18.575 0.934326C17.9567 0.646252 17.2899 0.49841 16.6163 0.500013C13.8906 0.500013 11.6986 2.8796 11.6986 5.79971C11.6986 6.20977 11.7447 6.61983 11.8197 7.01436C7.73849 6.78448 4.09855 4.68448 1.67864 1.46924C1.23771 2.2804 1.00665 3.204 1.00949 4.14394C1.00949 5.983 1.87766 7.60459 3.20154 8.55829C2.42136 8.5252 1.65944 8.29423 0.977767 7.88418V7.94942C0.977767 10.5247 2.66795 12.6589 4.92056 13.1497C4.49761 13.268 4.06251 13.3286 3.62553 13.3299C3.30537 13.3299 3.00252 13.2957 2.69679 13.2491C3.31979 15.3491 5.134 16.8744 7.29432 16.9241C5.60413 18.35 3.48708 19.1888 1.18832 19.1888C0.775868 19.1888 0.395145 19.1732 0 19.1235C2.18051 20.6302 4.7677 21.5 7.5539 21.5C16.599 21.5 21.5484 13.4293 21.5484 6.42412C21.5484 6.19424 21.5484 5.96436 21.534 5.73448C22.4915 4.9796 23.3308 4.04454 24 2.99454Z" fill="white"/>
</svg>
